:SAMPLES-PER-SECOND 30
:FULLY-SPECIFIED
:DEGREES
64
root  34.84287112 36.56058424 -14.43313088 9.832513809 -4.67709589 3.139211178
lowerback  -9.174679756 -0.1205189154 -0.6161618829
upperback  -3.620069981 0.3790290058 -3.444269896
thorax  1.410279989 0.3507809937 -3.17524004
lowerneck  -12.9059 -6.391670227 -4.514579773
upperneck  13.02130032 -8.749770164 6.888249874
head  6.594580173 -3.822560072 2.093230009
lclavicle  0 -4.497500157e-015 -2.743230041e-014
lhumerus  -47.99409866 31.23679924 62.40639877
lradius  -0.0003197069746 -6.507048965e-006 29.46579933
lwrist  3.192251654e-007 -3.790274832e-007 -29.18090057
lhand  -3.505795077e-031 -36.85160065 -10.81070042
lfingers  90 7.125020027 -90
lthumb  94.8221283 -25.64578056 101.0296326
rclavicle  0 -4.497500157e-015 -2.743230041e-014
rhumerus  -22.53829956 -17.8988018 -54.98289871
rradius  -5.16745672e-007 2.214343908e-008 98.26000214
rwrist  0.0006954420824 -0.004670973402 -176.4859924
rhand  -2.997641028e-031 0.8987749815 -7.985960007
rfingers  -90 -7.125020027 -90
rthumb  -86.03725433 -7.908136368 -63.27498245
rfemur  -12.11690331 15.31740952 12.7447052
rtibia  -0.2468187213 -1.09451437 18.99490356
rfoot  0.8726615906 -22.07229996 -35.7374382
rtoes  4.143878937 19.58321762 -102.1972504
lfemur  -7.21121788 -15.65624619 -20.54660988
ltibia  3.918962955 0.06568400562 12.18751144
lfoot  0.5324057341 -24.10151863 36.06393051
ltoes  -8.616026878 -18.11791229 -115.9776611
65
root  34.84215023 36.55988138 -14.42776627 9.832019806 -4.671266079 3.140334368
lowerback  -9.215411186 -0.1187970638 -0.6613083482
upperback  -3.621220112 0.3884739876 -3.449609995
thorax  1.431890011 0.3567320108 -3.154289961
lowerneck  -12.85249996 -6.437290192 -4.514200211
upperneck  12.97249985 -8.810779572 6.885630131
head  6.573309898 -3.854510069 2.087640047
lclavicle  0 -4.497500157e-015 -2.743230041e-014
lhumerus  -47.96889877 31.23559952 62.41159821
lradius  -0.0006351498887 -6.507048965e-006 29.45420074
lwrist  3.192251654e-007 -3.790274832e-007 -29.16040039
lhand  -3.505069867e-031 -36.85820007 -10.81849957
lfingers  90 7.125020027 -90
lthumb  94.82693481 -25.6531868 101.0375061
rclavicle  0 -4.497500157e-015 -2.743230041e-014
rhumerus  -21.03560066 -17.85420227 -54.77190018
rradius  -5.16745672e-007 2.214343908e-008 98.47460175
rwrist  0.0006954420824 -0.004670973402 -176.6089935
rhand  -2.995263329e-031 0.784792006 -8.021730423
rfingers  -90 -7.125020027 -90
rthumb  -86.07594299 -7.86908102 -63.38810349
rfemur  -12.10241508 15.30147648 12.76402664
rtibia  -0.247189939 -1.10227108 18.98876762
rfoot  0.8785848618 -22.09709549 -35.7207489
rtoes  4.168925285 19.57810211 -102.2719879
lfemur  -7.17646265 -15.67199612 -20.55957985
ltibia  3.948580503 0.05634305254 12.14231777
lfoot  0.5173852444 -24.05589294 36.03421021
ltoes  -8.610946655 -18.12026405 -115.9613266
66
root  34.84153447 36.56737861 -14.42240017 9.852371216 -4.656613827 3.139961004
lowerback  -9.229450226 -0.113581039 -0.6801956892
upperback  -3.610589981 0.3975459933 -3.452179909
thorax  1.451030016 0.3613820076 -3.145309925
lowerneck  -12.82839966 -6.480259895 -4.539659977
upperneck  12.92310047 -8.866140366 6.904069901
head  6.558740139 -3.882820129 2.09262991
lclavicle  0 -4.497500157e-015 -2.743230041e-014
lhumerus  -47.95389938 31.31410027 62.39039993
lradius  -0.001205476816 -6.507048965e-006 29.44280052
lwrist  3.192251654e-007 -3.790274832e-007 -29.1704998
lhand  -3.505874185e-031 -36.86589813 -10.80770016
lfingers  90 7.125020027 -90
lthumb  94.82822418 -25.64226151 101.0446777
rclavicle  0 -4.497500157e-015 -2.743230041e-014
rhumerus  -19.4897995 -17.72989845 -54.36970139
rradius  -5.16745672e-007 2.214343908e-008 98.56279755
rwrist  0.0006954420824 -0.004670973402 -176.8410034
rhand  -2.98352908e-031 0.9658859968 -8.196749687
rfingers  -90 -7.125020027 -90
rthumb  -86.1198349 -7.72416687 -63.22275543
rfemur  -12.0995779 15.4099884 12.76581001
rtibia  -0.2396112531 -1.042785764 18.97101021
rfoot  0.8991616964 -21.96166039 -35.77149582
rtoes  4.16977644 19.57563972 -102.2745285
lfemur  -7.173877716 -15.64935303 -20.56369019
ltibia  3.967510223 0.06790811568 12.10588264
lfoot  0.5021500587 -24.05683136 35.98180008
ltoes  -8.602015495 -18.12439537 -115.9326172
67
root  34.84102084 36.5735452 -14.41783454 9.897307396 -4.6598382 3.135835648
lowerback  -9.224980354 -0.1006060243 -0.6692451239
upperback  -3.588840008 0.4128400087 -3.463160038
thorax  1.471969962 0.3683150113 -3.161309958
lowerneck  -12.81070042 -6.523310184 -4.601749897
upperneck  12.8664999 -8.918720245 6.950679779
head  6.545859814 -3.909410238 2.112540007
lclavicle  0 -4.497500157e-015 -2.743230041e-014
lhumerus  -47.90510178 31.30459976 62.42620087
lradius  -0.001918346854 -6.507048965e-006 29.43659973
lwrist  3.192251654e-007 -3.790274832e-007 -29.10899925
lhand  -3.501885194e-031 -36.87279892 -10.85480022
lfingers  90 7.125020027 -90
lthumb  94.84152222 -25.68831825 101.0564346
rclavicle  0 -4.497500157e-015 -2.743230041e-014
rhumerus  -17.90749931 -17.77269936 -54.00279999
rradius  -5.16745672e-007 2.214343908e-008 98.56719971
rwrist  0.0006954420824 -0.004670973402 -176.7429962
rhand  -2.990227347e-031 1.152750015 -8.096119881
rfingers  -90 -7.125020027 -90
rthumb  -86.03717804 -7.825939655 -63.034832
rfemur  -12.16688251 15.44249725 12.76638508
rtibia  -0.240576759 -1.010358334 19.0161953
rfoot  0.9189173579 -21.90433502 -35.69682693
rtoes  4.170024872 19.57341194 -102.2752686
lfemur  -7.210447788 -15.66175175 -20.556633
ltibia  3.958405495 0.06032271683 12.08370876
lfoot  0.4682284892 -24.008564 35.96063995
ltoes  -8.56966877 -18.13930893 -115.8286743
